<svg xmlns="http://www.w3.org/2000/svg" version="1.1" xmlns:xlink="http://www.w3.org/1999/xlink" xmlns:svgjs="http://svgjs.dev/svgjs" width="2000" height="636" viewBox="0 0 2000 636"><g transform="matrix(1,0,0,1,-1.2121212121212466,-0.5600814602530022)"><svg viewBox="0 0 396 126" data-background-color="#070017" preserveAspectRatio="xMidYMid meet" height="636" width="2000" xmlns="http://www.w3.org/2000/svg" xmlns:xlink="http://www.w3.org/1999/xlink"><g id="tight-bounds" transform="matrix(1,0,0,1,0.2400000000000091,0.11095953457842711)"><svg viewBox="0 0 395.52 125.77808093084315" height="125.77808093084315" width="395.52"><g><svg viewBox="0 0 630.1394891807001 200.38869252601705" height="125.77808093084315" width="395.52"><g transform="matrix(1,0,0,1,234.61948918070013,27.694819299905404)"><svg viewBox="0 0 395.52 144.99905392620624" height="144.99905392620624" width="395.52"><g id="textblocktransform"><svg viewBox="0 0 395.52 144.99905392620624" height="144.99905392620624" width="395.52" id="textblock"><g><svg viewBox="0 0 395.52 144.99905392620624" height="144.99905392620624" width="395.52"><g transform="matrix(1,0,0,1,0,0)"><svg width="395.52" viewBox="1.27 -36.23 103.22 37.839999999999996" height="144.99905392620624" data-palette-color="#206db3"><path d="M22.46-35.84L22.46-35.84Q22.22-32.86 22.27-29.91 22.31-26.95 22.22-24.02L22.22-24.02 16.8-24.22Q16.75-22.51 16.72-20.85 16.7-19.19 16.7-17.48L16.7-17.48Q16.7-15.43 16.72-13.45 16.75-11.47 16.8-9.42L16.8-9.42 21.78-9.33Q21.68-7.91 21.68-6.45 21.68-4.98 21.68-3.52L21.68-3.52Q21.68-2.29 21.75-1.07 21.83 0.15 22.07 1.32L22.07 1.32 4.54 1.61Q4.54-0.78 4.49-3.1 4.44-5.42 4.3-7.81L4.3-7.81 7.47-7.86Q7.23-12.45 6.91-16.94 6.59-21.44 6.25-25.98L6.25-25.98 1.61-26.56Q1.51-28.61 1.44-30.64 1.37-32.67 1.27-34.72L1.27-34.72Q6.59-34.91 11.84-35.18 17.09-35.45 22.46-35.84ZM60.3 0.78L60.3 0.78Q54.39 0.68 48.22 0.49 42.04 0.29 36.13-0.39L36.13-0.39Q35.45-0.49 34.59-0.56 33.74-0.63 33.05-0.88L33.05-0.88Q31.64-1.42 30.83-2.08 30.03-2.73 29.59-3.59 29.15-4.44 28.95-5.49 28.76-6.54 28.61-7.86L28.61-7.86Q28.17-11.28 27.93-14.72 27.68-18.16 27.68-21.63L27.68-21.63Q27.68-22.27 27.71-23.17 27.73-24.07 27.81-25.05 27.88-26.03 28.02-26.9 28.17-27.78 28.42-28.37L28.42-28.37Q29.59-30.91 31.86-32.45 34.13-33.98 36.86-34.84 39.6-35.69 42.5-35.96 45.41-36.23 47.85-36.23L47.85-36.23Q53.07-36.23 58.3-35.21L58.3-35.21 58.69-24.76Q53.71-26.32 48.39-26.32L48.39-26.32Q47.41-26.32 45.8-26.22 44.19-26.12 42.5-25.85 40.82-25.59 39.35-25.07 37.89-24.56 37.3-23.68L37.3-23.68Q37.01-23.24 36.79-22.46 36.57-21.68 36.45-20.83 36.33-19.97 36.28-19.14 36.23-18.31 36.23-17.77L36.23-17.77Q36.23-16.65 36.4-15.11 36.57-13.57 36.81-11.96 37.06-10.35 37.4-8.89 37.74-7.42 38.13-6.49L38.13-6.49 46.77-6.49 46.34-15.92Q49.7-15.67 53.1-15.7 56.49-15.72 59.86-15.72L59.86-15.72Q60.2-11.57 60.25-7.47 60.3-3.37 60.3 0.78ZM104.49-0.24L104.49-0.24Q102.14 0.29 99.82 0.76 97.5 1.22 95.11 1.61L95.11 1.61Q92.18-2.83 89.33-7.15 86.47-11.47 83.39-15.77L83.39-15.77 78.17-10.69 77.68 0.15Q76.56 0.1 75.46 0.07 74.36 0.05 73.29 0.05L73.29 0.05Q72.26 0.05 71.28 0.1 70.31 0.15 69.33 0.29L69.33 0.29Q68.75-4.2 68.23-8.67 67.72-13.13 67.33-17.68L67.33-17.68Q66.94-22.22 66.72-26.73 66.5-31.25 66.3-35.79L66.3-35.79Q69.97-35.69 73.55-35.67 77.14-35.64 80.81-35.55L80.81-35.55 80.51-24.22Q83.15-26.95 85.49-29.79 87.84-32.62 90.33-35.55L90.33-35.55Q92.67-35.69 95.06-35.86 97.46-36.04 99.8-36.23L99.8-36.23 99.6-32.62 89.25-21.83Q92.96-16.31 96.75-10.99 100.53-5.66 104.49-0.24Z" opacity="1" transform="matrix(1,0,0,1,0,0)" fill="#206db3" class="wordmark-text-0" data-fill-palette-color="primary" id="text-0"></path></svg></g></svg></g></svg></g></svg></g><g><svg viewBox="0 0 200.38869252601705 200.38869252601705" height="200.38869252601705" width="200.38869252601705"><g data-palette-color="#206db3"><rect width="54.77290929044466" height="200.38869252601705" fill="#206db3" stroke="transparent" data-fill-palette-color="accent" x="0" fill-opacity="0.5"></rect><rect width="54.77290929044466" height="200.38869252601705" fill="#206db3" stroke="transparent" data-fill-palette-color="accent" x="66.79623084200568" fill-opacity="0.75"></rect><rect width="54.77290929044466" height="200.38869252601705" fill="#206db3" stroke="transparent" data-fill-palette-color="accent" x="133.59246168401137" fill-opacity="1"></rect></g></svg></g></svg></g><defs></defs></svg><rect width="395.52" height="125.77808093084315" fill="none" stroke="none" visibility="hidden"></rect></g></svg></g></svg>